<svg width="24" height="25" viewBox="0 0 24 25" fill="none" xmlns="http://www.w3.org/2000/svg">
<path d="M12 22.1221C17.5228 22.1221 22 17.6449 22 12.1221C22 6.59922 17.5228 2.12207 12 2.12207C6.47715 2.12207 2 6.59922 2 12.1221C2 17.6449 6.47715 22.1221 12 22.1221Z" stroke="#50E6FF" stroke-width="2" stroke-linecap="round" stroke-linejoin="round"/>
<path d="M9.08997 9.12215C9.32507 8.45382 9.78912 7.89026 10.3999 7.53128C11.0107 7.17231 11.7289 7.04109 12.4271 7.16086C13.1254 7.28064 13.7588 7.64368 14.215 8.18568C14.6713 8.72768 14.921 9.41367 14.92 10.1222C14.92 12.1222 11.92 13.1222 11.92 13.1222" stroke="#50E6FF" stroke-width="2" stroke-linecap="round" stroke-linejoin="round"/>
<path d="M12 17.1221H12.01" stroke="#50E6FF" stroke-width="2" stroke-linecap="round" stroke-linejoin="round"/>
</svg>
