<svg width="24" height="24" viewBox="0 0 24 24" fill="none" xmlns="http://www.w3.org/2000/svg">
<g clip-path="url(#clip0_2066_239)">
<path d="M20.4506 20.2508H16.9269V14.7869C16.9269 13.484 16.9034 11.8067 15.0942 11.8067C13.259 11.8067 12.9782 13.2263 12.9782 14.6921V20.2505H9.45444V9.01444H12.8372V10.55H12.8846C13.2231 9.97684 13.7123 9.50536 14.3 9.18574C14.8878 8.86612 15.5521 8.71033 16.2222 8.73496C19.7936 8.73496 20.4521 11.061 20.4521 14.0869L20.4506 20.2508ZM5.47855 7.47856C5.07412 7.47863 4.67873 7.35996 4.34242 7.13754C4.00611 6.91512 3.74398 6.59895 3.58914 6.22901C3.4343 5.85907 3.39372 5.45198 3.47255 5.05921C3.55138 4.66644 3.74608 4.30564 4.032 4.02243C4.31793 3.73921 4.68225 3.54631 5.0789 3.46812C5.47555 3.38993 5.8867 3.42995 6.26037 3.58313C6.63405 3.73631 6.95345 3.99576 7.1782 4.32868C7.40295 4.6616 7.52296 5.05304 7.52303 5.45349C7.52308 5.71938 7.47023 5.98267 7.36751 6.22834C7.26479 6.47401 7.11422 6.69723 6.92438 6.88528C6.73453 7.07332 6.50912 7.2225 6.26104 7.3243C6.01297 7.42609 5.74708 7.47851 5.47855 7.47856ZM7.24039 20.2508H3.71303V9.01444H7.24039V20.2508ZM22.2073 0.189104H1.94238C1.48242 0.183965 1.0392 0.359845 0.710141 0.678097C0.381085 0.996348 0.193114 1.43093 0.1875 1.88635V22.0349C0.192921 22.4906 0.380782 22.9255 0.709828 23.244C1.03887 23.5626 1.48219 23.7389 1.94238 23.734H22.2073C22.6684 23.7397 23.113 23.564 23.4433 23.2454C23.7737 22.9269 23.9628 22.4915 23.9692 22.0349V1.8849C23.9626 1.42858 23.7733 0.993497 23.443 0.675253C23.1126 0.357009 22.6682 0.181632 22.2073 0.18765" fill="white"/>
</g>
<defs>
<clipPath id="clip0_2066_239">
<rect width="24" height="24" fill="white"/>
</clipPath>
</defs>
</svg>
