<svg width="45" height="43" viewBox="0 0 45 43" fill="none" xmlns="http://www.w3.org/2000/svg">
<path fill-rule="evenodd" clip-rule="evenodd" d="M4.80131 27.7191C5.1148 27.7202 5.26326 27.7208 5.46671 27.7212L5.6359 27.552C6.05575 27.5334 6.46131 27.5202 6.86595 27.4963C7.20744 27.4761 7.54842 27.424 7.88944 27.4223C8.26931 27.4206 8.64557 27.3747 9.0304 27.3907C9.37762 27.4055 9.74531 27.5214 10.0833 27.4082C10.4761 27.2758 10.8421 27.4819 11.2271 27.4251C11.5826 27.3725 11.9478 27.3864 12.3078 27.3713C12.3078 27.3794 12.3076 27.4338 12.3078 27.5016C13.3862 27.5971 14.472 27.6663 15.5514 28.0949C15.5788 28.0825 15.6713 28.0413 15.785 27.9904C15.7936 28.0669 15.8014 28.1368 15.8094 28.2088C16.4072 28.3938 17.0044 28.6197 17.6052 28.7859C18.3451 28.9904 19.0282 29.3654 19.8077 29.459C20.1991 29.506 20.5991 29.6846 20.9356 29.8976C21.1416 30.0284 21.2172 29.8861 21.3678 29.8607C21.3892 29.9508 21.411 30.041 21.4397 30.1619C21.9136 30.3085 22.4014 30.4596 22.9039 30.6151C22.9099 30.4852 22.9133 30.4066 22.9191 30.2825C23.1628 30.2404 23.3878 30.0051 23.8073 30.3057C23.6925 30.0675 23.6216 29.9201 23.5342 29.7387C23.8551 29.751 23.9812 29.7558 24.1402 29.7618C24.1658 29.8673 24.1895 29.9662 24.2158 30.075C24.3574 30.1141 24.5198 30.1594 24.6764 30.2027C24.7166 30.1476 24.7816 30.0942 24.7726 30.0647C24.7032 29.847 24.619 29.6337 24.5401 29.4207C24.7654 29.0943 25.0106 29.3895 25.2442 29.3897C25.2442 29.3346 25.2439 29.2797 25.2442 29.2034C25.3474 29.1695 25.4572 29.1331 25.5728 29.0949C25.53 28.856 25.4899 28.6308 25.4326 28.3112C24.9867 27.7926 24.4246 27.236 23.9908 26.5929C23.7664 26.2609 23.4141 25.997 23.2917 25.6536C23.1393 25.2274 22.7189 25.0688 22.5667 24.7158C22.3986 24.3267 22.0347 24.1082 21.8616 23.7701C21.6717 23.399 21.3221 23.167 21.1482 22.8298C20.7343 22.027 20.0463 21.3951 19.7513 20.5257C19.4215 20.337 19.3886 19.852 18.9739 19.7483C18.8751 19.3105 18.6109 18.961 18.3699 18.5969C18.0296 18.083 17.8633 17.4672 17.417 17.0098C17.2909 16.8803 17.2644 16.6538 17.1473 16.3576C17.8518 16.7459 18.4564 17.0788 19.196 17.4862C19.2688 17.4784 19.5109 17.4516 19.7551 17.4245C19.8758 17.6435 19.9607 17.7976 20.0515 17.9618C20.7787 18.2841 21.4324 18.9026 22.3289 18.927C22.2887 19.3219 22.7082 19.4092 22.8374 19.6586C23.7756 19.9631 24.4739 20.5942 25.3585 21.1237C25.3743 21.1229 25.5108 21.1166 25.6407 21.1106C25.9881 21.2662 26.1249 21.6619 26.5441 21.7555C26.8483 21.823 27.156 22.0799 27.3612 22.3341C27.6116 22.6443 27.9592 22.8407 28.2703 22.9394C28.6566 23.062 28.8002 23.3825 29.1286 23.5738C29.222 23.5697 29.3587 23.5637 29.5482 23.5554C30.0721 24.1866 30.7693 24.6582 31.4208 25.2173C31.5522 25.1996 31.6834 25.1816 31.8528 25.1587L32.4502 25.7562C32.4629 25.5953 32.4684 25.5209 32.4802 25.366C32.7502 25.6938 33.0801 25.7058 33.4619 25.6423C33.4852 25.557 33.5122 25.4587 33.5352 25.3754C34.1294 25.3675 34.7397 25.3594 35.2965 25.3521C35.4069 25.1532 35.4905 25.0021 35.5986 24.8072C35.5768 24.7449 35.5357 24.6278 35.495 24.5109L35.6315 24.3744C35.7129 24.4148 35.8026 24.4592 35.9392 24.5269C36.3086 24.2083 36.3327 23.7765 36.311 23.336C36.0862 23.0193 36.0862 23.0193 36.2394 22.4973C36.2945 22.6935 36.3154 22.7678 36.3481 22.8834C36.4142 22.8443 36.4894 22.8003 36.5934 22.7385C36.4825 22.5883 36.3913 22.4651 36.2785 22.3121C36.3819 22.3001 36.4505 22.2918 36.5014 22.2858C36.5825 21.779 36.6639 21.2711 36.7549 20.7019L36.4956 20.4425C36.6216 20.4323 36.6953 20.426 36.7953 20.4179C36.7505 20.3269 36.7079 20.2412 36.652 20.128L36.8988 19.8812C36.8988 19.73 36.8985 19.6203 36.8986 19.5101C36.6663 19.4889 36.44 19.3041 36.1975 19.4847C36.271 19.0389 36.6229 19.1661 36.9626 19.1315C36.8573 19.006 36.7753 18.9082 36.6889 18.8057C36.7836 18.4212 36.7968 18.0221 37.1165 17.6833C37.3834 17.4006 37.2461 16.9925 37.0846 16.6075C37.1891 16.5918 37.2523 16.5825 37.3784 16.5641C37.2947 16.4393 37.2201 16.3288 37.125 16.188C37.1564 16.1643 37.203 16.1292 37.341 16.0246C37.3853 15.7628 37.3791 15.3704 37.5235 15.0442C37.7292 14.58 37.475 14.1018 37.6936 13.6298C37.8853 13.2159 37.947 12.7388 37.97 12.2538C38.0015 11.5925 38.1901 10.9389 38.3203 10.2345L38.6399 10.5541C38.6104 10.6357 38.5681 10.7532 38.5106 10.9137C38.6515 10.9459 38.7747 10.9739 38.922 11.0079C38.9835 11.2425 39.0736 11.4861 39.105 11.7372C39.1315 11.9474 39.3292 12.166 39.1129 12.3809C39.3918 12.5435 39.3469 12.826 39.3497 13.0822C39.4277 13.082 39.4824 13.082 39.5251 13.082C39.5382 14.0201 39.817 14.8943 40.1616 15.7547C40.1544 16.056 40.1473 16.357 40.1405 16.6553L40.3336 16.8485C40.4069 17.2897 40.4706 17.6734 40.5428 18.1101C40.7285 18.0591 40.8603 18.023 41.0304 17.9764C41.1022 18.2383 41.1695 18.4847 41.2319 18.7129C41.0432 18.8272 40.8806 18.9262 40.7193 19.0238C40.8351 19.6024 40.9413 20.1334 41.0772 20.8124C41.2515 20.535 41.1941 20.3583 41.2137 20.1742C41.5848 20.2628 41.3874 20.5636 41.4439 20.7585C41.5421 20.7743 41.64 20.7893 41.8496 20.822C41.7688 20.9592 41.6934 21.0876 41.6179 21.216C41.6765 21.2168 41.7351 21.2177 41.7934 21.2188C41.675 21.2495 41.5567 21.2803 41.4263 21.3145C41.5041 21.5461 41.5684 21.7373 41.6321 21.9258C41.737 21.9328 41.8167 21.9382 41.9026 21.9437C41.9056 22.0172 41.9092 22.0952 41.9135 22.1961C41.7253 22.3249 41.5254 22.4623 41.343 22.5871C41.5357 23.3315 41.7195 24.0396 41.903 24.7479C41.9348 24.7477 41.9667 24.7479 41.9981 24.7477C42.0107 24.6701 42.0235 24.5927 42.0549 24.4011C42.2951 24.7494 42.4932 25.0367 42.7233 25.3707C43.0128 25.2132 43.2803 25.0675 43.6685 24.8558C43.6835 24.8575 43.8456 24.8769 44.0514 24.9015C43.8454 23.9357 43.8606 22.9988 43.8108 22.0777C43.7418 20.8027 43.4354 19.5754 43.2869 18.3193C43.1324 17.0115 42.8043 15.7235 42.556 14.4261C42.4143 13.6875 42.2955 12.9439 42.1395 12.2081C41.9203 11.1752 41.7163 10.1366 41.4246 9.12403C41.296 8.67789 41.3365 8.21081 41.1171 7.76831C40.9287 7.38845 40.9361 6.91045 40.8618 6.47502C40.6716 5.3631 40.449 4.25803 40.3847 3.12538C40.3432 2.3878 40.2046 1.65518 40.0956 0.812911L39.3997 0.11698C39.2255 0.280412 38.9781 0.396674 38.9788 0.766946C38.8085 0.630828 38.6495 0.50349 38.4993 0.383194C37.7434 0.581911 37.1812 1.04791 36.6563 1.72163C36.6718 1.81541 36.703 2.00302 36.7597 2.34681C36.7776 2.38869 36.8665 2.59676 36.9735 2.84656C36.725 2.96342 36.5385 3.05123 36.3626 3.13392C36.3082 3.4978 36.2287 3.85891 36.2071 4.22321C36.1885 4.53367 35.8706 4.83234 36.2757 5.15672C36.1039 5.15714 36.049 5.1569 35.9466 5.15711C36.1129 5.53104 35.6193 5.88917 35.9839 6.26393C35.8939 6.37824 35.8131 6.4808 35.7174 6.60212C35.7544 6.66129 35.795 6.72629 35.84 6.79825C35.4108 7.75448 35.3616 8.79922 35.2377 9.84795C35.195 9.89066 35.1016 9.94044 35.0845 10.0088C35.0159 10.2851 34.8522 10.6175 34.9443 10.8357C35.0943 11.19 34.704 11.5534 35.0625 11.8615C34.9296 12.0106 34.8063 12.1489 34.6741 12.2969C34.7151 12.3854 34.7578 12.4773 34.81 12.5897C34.7454 12.6615 34.6745 12.7401 34.5655 12.8619C34.5726 13.1313 34.5807 13.4446 34.5903 13.8153C34.7828 13.7463 34.8963 13.7054 35.0536 13.6486C35.005 13.8929 34.9612 14.1131 34.9172 14.3336C34.823 14.3556 34.7292 14.3772 34.5792 14.4114C34.6166 14.5595 34.6811 14.6954 34.6749 14.8281C34.6696 14.944 34.5846 15.0565 34.5356 15.1687C34.4523 15.184 34.3514 15.2024 34.1801 15.234C34.2198 15.3878 34.2542 15.5193 34.3115 15.7406C34.3578 15.7664 34.5102 15.8517 34.6834 15.9485L34.4473 16.1846C34.5399 16.4891 34.607 16.701 34.4053 17.0117C34.0623 17.5397 33.9527 18.1932 33.7613 18.7988C33.7318 18.8915 33.8277 19.0238 33.8655 19.1364C33.7784 19.1445 33.7061 19.1513 33.7134 19.1505C33.6859 19.5045 33.6134 19.8317 33.6487 20.1468C33.6841 20.4673 33.826 20.7763 33.9457 21.1694C33.8703 21.3486 33.7143 21.2594 33.4628 20.8793C33.5032 21.2465 33.5167 21.3698 33.5333 21.5194C33.6429 21.556 33.7557 21.5936 33.9705 21.6651C33.7463 21.7636 33.5959 21.8299 33.426 21.9044C33.4166 21.9711 33.4051 22.048 33.387 22.1734C33.2816 22.1698 33.0996 22.2138 33.0519 22.153C32.819 21.855 32.4917 21.782 32.1926 21.6918C31.878 21.1534 31.2687 21.0149 30.8283 20.6635C30.3439 20.2761 29.8315 19.9073 29.2833 19.6231C28.7585 19.3504 28.2143 19.0862 27.7725 18.7187C27.3035 18.3283 26.7558 18.0901 26.2698 17.7412C25.7743 17.3854 25.2235 17.0974 24.6709 16.8333C24.1382 16.5793 23.6827 16.2053 23.1407 15.9564C22.5898 15.7034 22.04 15.399 21.54 15.0558C21.0444 14.7156 20.4831 14.5385 19.9788 14.2343C19.4765 13.9311 18.9588 13.6514 18.4344 13.3878C17.8903 13.114 17.3279 12.8764 16.7775 12.6144C16.2485 12.3628 15.7243 12.1001 15.1536 11.8205C14.9481 11.8205 14.6765 11.8202 14.4085 11.8203C14.4045 11.8906 14.3994 11.9705 14.3953 12.0425C14.164 12.3098 13.952 12.0931 13.7704 12.0423C13.4738 12.2465 13.196 12.4376 12.8958 12.6442C12.8943 12.6854 12.8911 12.7664 12.8883 12.8414C12.3114 12.8739 12.2589 13.3409 12.2033 13.7414C12.1476 14.1458 12.1912 14.5637 12.1911 15.0043C12.6738 15.6442 12.7059 16.5865 13.5184 17.0547C13.4501 17.1585 13.4078 17.2226 13.3368 17.3299C13.6246 17.7309 13.9293 18.1548 14.2742 18.6347C14.2648 18.6522 14.2184 18.7383 14.184 18.8022C14.4178 19.2154 14.6348 19.6227 14.8765 20.0148C14.9716 20.1688 15.1006 20.3692 15.251 20.4086C15.6333 20.5088 15.8335 20.7111 15.9339 21.0914C15.9801 21.2662 16.1694 21.4025 16.2096 21.6311L15.7525 21.1741C15.7155 21.2773 15.6794 21.3433 15.6908 21.3525C16.0237 21.6299 16.189 22.0273 16.3715 22.3927C16.5251 22.7005 16.7437 23.0007 17.0057 23.0742C17.3454 23.1695 17.4409 23.4492 17.8238 23.6394C17.6176 23.6729 17.5578 23.6827 17.4971 23.6926C17.6206 24.2601 17.7031 24.466 18.1084 24.6034C18.4327 24.7133 18.53 24.9775 18.6836 25.2291C18.5113 25.0919 18.3391 24.9547 18.043 24.7188C18.3398 25.1758 18.5483 25.4968 18.8426 25.9495C17.506 25.4438 16.236 25.3327 14.9938 25.0848C13.7284 24.8323 13.0537 24.8011 11.9916 24.9282C11.7986 24.9511 11.5933 24.8508 11.3959 24.8594C11.054 24.8748 10.7137 24.9596 10.3724 24.9611C10.0592 24.9624 9.74252 24.8436 9.43234 24.8624C8.61142 24.9128 7.80247 25.0996 6.97365 25.0955C6.89246 25.0951 6.81023 25.2252 6.71939 25.3027C6.58589 25.2714 6.43134 25.187 6.29609 25.2111C5.63508 25.329 4.96628 25.4325 4.32617 25.6269C3.81738 25.7814 3.29674 25.8944 2.79115 26.0926C2.29166 26.2884 1.90962 26.6226 1.46687 26.8696C1.00895 27.1253 0.722855 27.6067 0.523532 28.1526C1.2891 28.2093 1.22756 29.0455 1.66728 29.4357C1.45681 29.2556 1.24613 29.0752 1.03546 28.8949C1.00642 28.9278 0.977375 28.9611 0.948281 28.994L1.33398 29.3797C1.45061 29.4964 1.56921 29.6111 1.68332 29.7299C1.81089 29.8634 1.99401 29.9688 1.93526 30.2023C2.17926 30.1027 2.11792 30.4448 2.267 30.4414C2.53457 30.4359 2.30765 30.7871 2.5615 30.8076C2.7016 30.8192 2.84542 30.9245 2.96407 31.0174C3.11057 31.1324 3.23256 31.2783 3.35286 31.3986C3.48389 31.3356 3.57509 31.2918 3.71932 31.2224C3.652 31.3606 3.6095 31.448 3.54992 31.5696C3.6063 31.6367 3.67274 31.7159 3.78169 31.8454C4.00541 31.8456 4.27056 31.8458 4.50883 31.846C4.60648 31.9548 4.67694 32.0334 4.74153 32.1052C4.68917 32.2178 4.64661 32.3095 4.58749 32.4362C4.73317 32.3849 4.84469 32.3456 4.95643 32.3065L5.0842 32.4343C5.04469 32.5443 5.0026 32.6621 4.95581 32.7917C5.40001 33.018 5.8684 33.1744 6.22583 33.5494C6.38781 33.719 6.67771 33.7667 6.93502 33.8808C6.93414 33.8757 6.94033 33.9242 6.94998 33.9983C7.32175 34.2132 7.70699 34.4361 8.18172 34.7105C8.15825 34.4814 8.14242 34.3284 8.12792 34.1861C8.33983 34.3459 8.44857 34.4833 8.56654 34.7478C8.59239 34.7515 8.61803 34.7579 8.64433 34.759C8.69922 34.7604 8.75411 34.7594 8.81849 34.7592C8.81611 34.8136 8.8125 34.8677 8.81178 34.9218C8.81162 34.948 8.81673 34.9746 8.81993 35.0029C9.02333 35.1064 9.22828 35.2104 9.4975 35.3472L10.0098 34.8348C10.0489 34.8482 10.0878 34.862 10.1269 34.8758C10.1015 34.997 10.0757 35.1181 10.0396 35.2905C9.9744 35.3096 9.85895 35.3429 9.63956 35.4068C9.9759 35.6097 10.2502 35.7755 10.5169 35.9362C10.603 35.8813 10.6675 35.8399 10.7348 35.7969C10.8295 36.2899 11.2066 36.3448 11.5961 36.3946C11.7202 36.4106 11.8469 36.4543 11.958 36.5125C12.2074 36.6426 12.4478 36.7898 12.7415 36.9593C12.7503 36.9544 12.8172 36.9178 12.9556 36.8426C13.0565 36.958 13.1775 37.0964 13.3695 37.3167C13.3086 37.3114 13.3887 37.2979 13.4481 37.3265C13.9295 37.5579 14.3827 37.8462 14.884 38.038C14.9312 38.0563 14.9626 38.1111 15.0077 38.1382C15.3017 38.3143 15.7096 38.1175 15.9617 38.4171C16.1843 38.6816 16.5292 38.641 16.8016 38.7814C17.0946 38.9325 17.4016 39.0562 17.7045 39.1865C17.7979 39.2269 17.9088 39.2331 17.9922 39.2861C18.0828 39.3434 18.1504 39.4367 18.2635 39.5497C18.3895 39.5322 18.5513 39.5102 18.671 39.4935L19.0663 39.8888C19.5448 39.8773 20.0288 39.8578 20.3878 40.2724C20.4196 40.3093 20.4754 40.3523 20.5173 40.3497C21.2264 40.3055 21.7501 40.8292 22.4146 40.9578C23.0554 41.0819 23.6521 41.4185 24.2861 41.5986C25.1258 41.8374 25.9824 42.0159 26.833 42.2157C26.911 42.2342 27.003 42.2379 27.0787 42.2152C27.7861 42.0043 28.4914 41.7858 29.131 41.5902C29.3619 41.2482 29.5517 40.967 29.7957 40.6055C29.7595 40.4544 29.6999 40.2063 29.6423 39.9653C29.2098 39.7739 28.8 39.5675 28.3718 39.4106C27.9415 39.253 27.4992 39.1115 27.0507 39.0216C26.0689 38.8239 25.1565 38.4116 24.1991 38.1451C23.6325 37.9874 23.112 37.6601 22.4986 37.6731C21.6326 37.1691 20.6659 36.9238 19.7412 36.5695C19.3414 36.4163 18.9141 36.3215 18.5338 36.101C18.1836 35.8973 17.8016 35.7491 17.4343 35.5749C16.2857 35.0314 15.135 34.4931 13.9906 33.9411C13.3947 33.6536 12.8044 33.3526 12.2224 33.0377C11.6363 32.7203 11.0735 32.3358 10.4859 32.0512C9.45623 31.5523 8.60781 30.7931 7.60634 30.2609C7.0775 29.9799 6.64248 29.5124 6.19121 29.1005C5.75125 28.6994 5.34425 28.262 4.80131 27.7191Z" fill="#D59DFF"/>
</svg>
