<svg width="92" height="80" viewBox="0 0 92 80" fill="none" xmlns="http://www.w3.org/2000/svg">
<path d="M90.5429 50.4015L90.076 50.5197C89.946 50.5527 89.8114 50.5941 89.662 50.6403L89.6563 50.642C89.5141 50.686 89.3578 50.7343 89.2016 50.774C83.1473 52.3914 77.1401 54.1327 71.1863 56.1126L71.184 56.1134C62.0624 59.0978 52.9846 62.2391 44.1567 65.8963C42.5119 66.5839 40.9025 67.2812 39.2897 67.98C39.0275 68.0978 38.7947 68.1973 38.5222 68.2872C38.3268 68.3622 38.0762 68.4335 37.812 68.4043C37.5092 68.3708 37.2478 68.2127 37.0595 67.938C36.8596 67.6465 36.8265 67.3247 36.9128 67.0373C36.9909 66.7774 37.1576 66.5702 37.3314 66.4257C37.6527 66.1222 38.0364 65.8045 38.4944 65.5802L38.5439 65.5551L38.5444 65.5548L38.5555 65.5492C39.6465 64.9934 40.8082 64.4015 41.9735 63.9556C41.9743 63.9552 41.9751 63.9549 41.9758 63.9546L42.1545 64.4216C55.2567 59.2573 68.5051 54.698 82.2259 51.3968L90.5429 50.4015ZM90.5429 50.4015L90.4423 49.9305L90.4412 49.9256C90.4334 49.889 90.4223 49.8371 90.4088 49.7876C90.3964 49.7424 90.3715 49.6578 90.3228 49.5755L90.143 49.2717L89.7966 49.3395C89.6581 49.3666 89.4818 49.3866 89.277 49.4095L89.2532 49.4121L89.2298 49.4171C88.4571 49.5792 87.6818 49.7327 86.9036 49.8869L86.8628 49.895L86.8627 49.895L86.8593 49.8956C85.2796 50.2084 83.687 50.5236 82.1079 50.9109L90.5429 50.4015Z" fill="#0C91EB" stroke="#0C91EB"/>
<path d="M68.9563 17.2115L68.6111 17.5473C68.5149 17.6409 68.4191 17.7441 68.3128 17.8588L68.3088 17.8631C68.2076 17.9723 68.0964 18.0923 67.9809 18.2048C63.5465 22.6327 59.2147 27.1442 55.0486 31.8358L55.047 31.8376C48.6396 38.983 42.3486 46.2423 36.5321 53.8235C35.4514 55.2413 34.4063 56.6499 33.359 58.0615C33.1908 58.2946 33.0389 58.4973 32.8478 58.7114C32.7162 58.874 32.5348 59.061 32.2913 59.1678C32.0124 59.2902 31.7069 59.284 31.4065 59.1403C31.0877 58.9878 30.8981 58.7257 30.8292 58.4336C30.7669 58.1694 30.8076 57.9067 30.8859 57.6946C31.0124 57.2712 31.1858 56.8041 31.4703 56.3809L31.5006 56.3344L31.5009 56.3339L31.5077 56.3235C32.1746 55.2967 32.8848 54.2033 33.6709 53.2344C33.6715 53.2337 33.672 53.2331 33.6725 53.2324L34.0608 53.5475C42.8254 42.524 52.0192 31.9513 62.2512 22.2319L68.9563 17.2115ZM68.9563 17.2115L68.6336 16.854L68.6302 16.8502C68.6052 16.8225 68.5696 16.783 68.5332 16.7469C68.4999 16.714 68.436 16.6531 68.3527 16.6062L68.045 16.433L67.7789 16.6649C67.6726 16.7576 67.5299 16.8631 67.3639 16.9854L67.3447 16.9996L67.3269 17.0155C66.7387 17.5423 66.1441 18.0629 65.5473 18.5855L65.5159 18.6129L65.5159 18.6129L65.5133 18.6152C64.3016 19.6759 63.0799 20.7453 61.906 21.8702L68.9563 17.2115Z" fill="#0C91EB" stroke="#0C91EB"/>
<path d="M33.5035 0.80164L33.3724 1.26509C33.3359 1.39417 33.3045 1.53146 33.2698 1.68396L33.2685 1.68972C33.2354 1.83487 33.1991 1.99438 33.1554 2.14955C31.529 8.20141 30.0333 14.2744 28.7712 20.4205L28.7707 20.4229C26.7944 29.8147 24.9759 39.2469 23.7292 48.7207C23.5023 50.4889 23.3015 52.2313 23.1003 53.9774C23.0712 54.2634 23.041 54.5149 22.9825 54.7958C22.9498 55.0025 22.8862 55.2552 22.7288 55.4694C22.5485 55.7148 22.2808 55.8622 21.9488 55.8879C21.5964 55.9152 21.3012 55.7831 21.0955 55.5646C20.9094 55.367 20.8133 55.1191 20.7751 54.8963C20.6729 54.4663 20.5896 53.9751 20.6244 53.4663L20.6273 53.4109L20.6274 53.4103L20.628 53.3979C20.6922 52.1752 20.7605 50.8732 20.9569 49.6411C20.957 49.6402 20.9571 49.6394 20.9573 49.6385L21.451 49.7173C23.5297 35.7884 26.2054 22.0352 30.2069 8.50204L33.5035 0.80164ZM33.5035 0.80164L33.0452 0.653335L33.0404 0.651778C33.0049 0.640272 32.9543 0.623895 32.9047 0.610868C32.8594 0.598969 32.7737 0.578206 32.678 0.579249L32.325 0.583096L32.2105 0.917005C32.1648 1.05042 32.094 1.21314 32.0114 1.402L32.0018 1.4239L31.9943 1.44661C31.7484 2.19686 31.4937 2.94506 31.2381 3.69606L31.2247 3.73547L31.2247 3.73553L31.2236 3.73879C30.7045 5.26326 30.1812 6.80015 29.7271 8.36133L33.5035 0.80164Z" fill="#0C91EB" stroke="#0C91EB"/>
</svg>
